<?xml version="1.0" encoding="UTF-8"?>
<svg width="268px" height="67px" viewBox="0 0 268 67" version="1.1" xmlns="http://www.w3.org/2000/svg" xmlns:xlink="http://www.w3.org/1999/xlink">
    <title>Leamo-Logo</title>
    <g id="Page-1" stroke="none" stroke-width="1" fill="none" fill-rule="evenodd">
        <g id="burger-menu" transform="translate(-53.000000, -46.000000)" fill="#FFFFFF" fill-rule="nonzero">
            <g id="header" transform="translate(0.000000, -5.000000)">
                <g id="Leamo-Logo" transform="translate(53.000000, 51.000000)">
                    <path d="M235.707352,52.8545472 C233.936569,50.2652246 233.067275,46.4783403 233.067275,41.5262609 C233.067275,36.6389145 233.968765,32.8843968 235.771744,30.3274407 C237.574724,27.7704847 240.279193,26.4758234 243.949543,26.4758234 C247.587698,26.4758234 250.324363,27.7704847 252.127343,30.3274407 C253.930322,32.8843968 254.831812,36.6389145 254.831812,41.5262609 C254.831812,46.4136073 253.930322,50.2004915 252.127343,52.8221807 C250.324363,55.4438698 247.619894,56.7708976 243.949543,56.7708976 C240.214801,56.7385311 237.445939,55.4438698 235.707352,52.8545472 M253.86593,65.2832956 C256.860163,64.1181004 259.403652,62.4350407 261.496396,60.2341165 C263.58914,58.0331923 265.198943,55.3467702 266.325805,52.2072165 C267.452667,49.0676629 268,45.4749778 268,41.4938944 C268,37.577544 267.452667,34.0495919 266.358001,30.8776718 C265.263335,27.7381181 263.653532,25.051696 261.560788,22.8831383 C259.468044,20.7145806 256.924556,19.031521 253.930322,17.8663258 C250.936088,16.7011306 247.587698,16.1185331 243.885151,16.1185331 C240.246997,16.1185331 236.898606,16.7011306 233.936569,17.8663258 C230.942335,19.031521 228.398847,20.7145806 226.306103,22.8831383 C224.213359,25.051696 222.603556,27.7057516 221.476694,30.8776718 C220.349832,34.0172254 219.802499,37.577544 219.802499,41.4938944 C219.802499,49.682627 221.895243,55.9941008 226.112926,60.3959492 C230.33061,64.7977976 236.254685,66.9987218 243.917347,66.9987218 C247.555502,67.0310883 250.903892,66.4484907 253.86593,65.2832956 M145.172033,65.5745944 L157.953868,65.5745944 L157.953868,36.7360141 C157.953868,35.3442532 158.211437,34.0172254 158.726574,32.8196637 C159.241711,31.622102 159.917828,30.586373 160.787122,29.7448431 C161.817395,28.7091141 162.879865,27.9646839 163.942335,27.543919 C165.004805,27.123154 166.19606,26.8965883 167.451706,26.8965883 C168.256607,26.8965883 168.997117,27.0260544 169.737626,27.2526202 C170.478136,27.5115524 171.089861,27.9323173 171.604998,28.5472815 C172.120135,29.1622456 172.538683,30.0037754 172.828448,31.071871 C173.118212,32.1399665 173.279193,33.5317274 173.279193,35.2471536 L173.279193,65.5745944 L186.061028,65.5745944 L186.061028,36.1857831 C186.061028,34.9558548 186.318597,33.7906597 186.833734,32.6901976 C187.348871,31.5897355 188.024988,30.6187395 188.894282,29.7448431 C189.924556,28.7091141 190.987025,27.9646839 192.049495,27.543919 C193.111965,27.123154 194.30322,26.8965883 195.558866,26.8965883 C196.363767,26.8965883 197.104277,27.0260544 197.844786,27.2526202 C198.585296,27.5115524 199.197021,27.9323173 199.712158,28.5472815 C200.227295,29.1622456 200.645843,30.0037754 200.935608,31.071871 C201.225372,32.1399665 201.386353,33.5317274 201.386353,35.2471536 L201.386353,65.5745944 L214.168188,65.5745944 L214.168188,33.5317274 C214.168188,27.4144528 212.944738,22.9802379 210.465642,20.2614492 C207.986545,17.5426605 204.283998,16.1832661 199.358001,16.1832661 C196.42816,16.1832661 193.755887,16.8305968 191.308986,18.1252581 C188.862086,19.4199194 186.543969,21.523744 184.354637,24.4690984 C183.453148,21.7826762 181.875541,19.7112181 179.686209,18.3194573 C177.496877,16.9276964 174.663623,16.2156327 171.186449,16.2156327 C168.578568,16.2156327 166.067275,16.8629633 163.684767,18.1576246 C161.302259,19.4522859 159.241711,21.4266444 157.470927,24.1130665 L157.470927,17.6397601 L145.043248,17.6397601 L145.043248,65.5745944 L145.172033,65.5745944 Z M125.629025,46.640173 C125.629025,48.6145315 125.274868,50.2328581 124.534358,51.5598859 C123.793849,52.8869137 122.860163,53.9550093 121.701105,54.8289057 C119.640557,56.3501327 116.936088,57.1269294 113.65209,57.1269294 C111.688131,57.1269294 110.174916,56.673798 109.08025,55.7351686 C107.985584,54.8289057 107.438251,53.5666109 107.438251,51.9806508 C107.438251,50.9449218 107.599231,50.0062923 107.888996,49.132396 C108.17876,48.2908661 108.790485,47.5140694 109.659779,46.8667387 C110.529073,46.2194081 111.816915,45.7015436 113.458914,45.2484121 C115.100913,44.8276472 117.258049,44.5363484 119.930322,44.4068823 L125.596828,44.1155835 L125.596828,46.640173 L125.629025,46.640173 Z M125.886593,65.5745944 L137.960115,65.5745944 L137.960115,35.2795202 C137.960115,32.3341657 137.605959,29.6801101 136.897645,27.3497198 C136.189332,24.9869629 135.06247,22.9802379 133.517059,21.3295448 C131.971648,19.6788516 129.9111,18.4165569 127.335416,17.510294 C124.791927,16.6363976 121.668909,16.1832661 118.030754,16.1832661 C112.074483,16.1832661 107.309467,17.3160948 103.7679,19.5493855 C100.226333,21.7826762 98.0370014,25.4077278 97.1999039,30.4245403 L108.887074,31.5250024 C109.627583,27.6733851 112.525228,25.7313931 117.58001,25.7313931 C119.769342,25.7313931 121.668909,26.2816242 123.278712,27.3820863 C124.888515,28.4825484 125.693417,30.4892734 125.693417,33.4346278 L125.693417,35.8297512 L119.576165,36.12105 C116.51754,36.2505161 113.523306,36.5418149 110.593465,37.0273129 C107.631427,37.5128109 104.99135,38.3543407 102.608842,39.5195359 C100.226333,40.6847311 98.326766,42.3030577 96.8457472,44.3745157 C95.3969246,46.4459738 94.6564152,49.1647625 94.6564152,52.4661488 C94.6564152,54.9907383 95.074964,57.1269294 95.9442576,58.9394552 C96.7813551,60.7519811 97.9404133,62.2408415 99.3570399,63.4060367 C100.773667,64.5712319 102.447862,65.4127617 104.379625,65.9629928 C106.311389,66.5132238 108.307544,66.8045226 110.46468,66.8045226 C114.167227,66.8045226 117.193657,66.1248254 119.543969,64.7977976 C121.894282,63.4384032 124.019222,61.722977 125.886593,59.5544194 L125.886593,65.5745944 L125.886593,65.5745944 Z M58.7578087,36.2828827 C58.8222009,34.8263887 59.0797693,33.4669944 59.5949063,32.2046996 C60.0778472,30.9424048 60.7539644,29.8419427 61.6554541,28.9033133 C62.5247477,27.9646839 63.6194137,27.2202536 64.9072561,26.6376561 C66.1950985,26.087425 67.6761173,25.7961262 69.3825084,25.7961262 C72.7952907,25.7961262 75.3065834,26.7023891 76.9163864,28.5472815 C78.5261893,30.3921738 79.3310908,32.9491298 79.3310908,36.2505161 L58.7578087,36.2505161 L58.7578087,36.2828827 Z M78.6549736,50.5888899 C77.7534839,54.8612722 74.7592504,57.0298298 69.704469,57.0298298 C66.0663143,57.0298298 63.2974531,55.9293677 61.4944738,53.7608101 C59.6592984,51.5922524 58.6934166,48.5821649 58.5646324,44.7305476 L91.6299856,44.7305476 L91.6299856,39.584269 C91.6299856,32.4312653 89.7948102,26.7347556 86.0922633,22.4947399 C82.4219125,18.2547242 76.9163864,16.1508996 69.6078808,16.1508996 C66.0663143,16.1508996 62.8467083,16.7334972 59.9168669,17.8339593 C56.9870255,18.9667879 54.4757328,20.6498476 52.3829889,22.8507718 C50.2902451,25.051696 48.648246,27.7381181 47.4891879,30.8776718 C46.3301297,34.0172254 45.7506007,37.642277 45.7506007,41.655727 C45.7506007,49.7473601 47.7467564,55.9941008 51.7390678,60.3959492 C55.7313791,64.7977976 61.6876502,66.9987218 69.6078808,66.9987218 C76.175877,66.9987218 81.1984623,65.6069609 84.6434407,62.8234391 C88.088419,60.0399173 90.213359,55.9617343 91.0826526,50.5565234 L78.6549736,50.5565234 L78.6549736,50.5888899 Z M0,65.5745944 L43.0139356,65.5745944 L44.4627583,53.8255432 L13.6189332,53.8255432 L13.6189332,0 L0,0 L0,65.5745944 Z" id="Shape"></path>
                </g>
            </g>
        </g>
    </g>
</svg>